<?xml version="1.0" encoding="UTF-8"?>
<svg id="Layer_2" data-name="Layer 2" xmlns="http://www.w3.org/2000/svg" viewBox="0 0 2213.3 471.24">
  <defs>
    <style>
      .cls-1 {
        fill: #d48d00;
      }

      .cls-2 {
        fill: #fff;
      }
    </style>
  </defs>
  <g id="Layer_2-2" data-name="Layer 2">
    <polygon class="cls-2" points="102.71 3.91 0 3.91 0 324.36 247.13 324.36 247.13 236.59 102.71 236.59 102.71 3.91"/>
    <path class="cls-2" d="M376.79,3.91l-129.49,320.46h109.72l15.82-41.25h107.56l16.23,41.25h111.51L478.63,3.91h-101.84ZM398.73,210.23l28.11-74.62,28.09,74.62h-56.2Z"/>
    <polygon class="cls-2" points="1825.9 112.36 1731.97 112.36 1731.97 3.91 1629.23 3.91 1629.23 324.36 1731.97 324.36 1731.97 214.17 1825.9 214.17 1825.9 324.36 1928.62 324.36 1928.62 3.91 1825.9 3.91 1825.9 112.36"/>
    <path class="cls-2" d="M2142.18,184.33l-13.59-45.64h-43.47c-27.23,0-40.39-9.67-40.39-24.62v-.86c0-14.49,12.29-24.56,35.12-24.56,25.47,0,49.62,11.84,72.44,33.32l61.01-62.75c-33.8-34.69-78.57-55.31-141.8-55.31-68.03,0-125.97,36.85-125.97,103.18v.86c0,48.29,29.84,75.11,75.92,87.34l-68.91,51.83v77.25h236.18v-86.46h-114.15l67.61-53.57Z"/>
    <path class="cls-2" d="M909.91,112.79v-.89c0-31.6-9.65-54.45-28.1-72.85-21.51-21.51-56.18-35.15-110.62-35.15h-150.13v320.46h102.72v-100.95h21.95l57.93,100.95h117.23l-71.57-117.64c37.33-17.97,60.59-49.15,60.59-93.94ZM807.63,120.26c0,18.88-14.93,29.86-39.52,29.86h-44.33v-60.16h44.78c23.7,0,39.07,9.64,39.07,29.41v.89Z"/>
    <path class="cls-2" d="M1466.65,232.2c-33.79,0-57.5-28.13-57.5-68.04v-.91c0-36.85,22.83-67.15,57.5-67.15,28.1,0,44.34,15.38,55.76,37.31l84.72-49.61c-25.89-46.98-71.55-79.9-139.15-79.9-91.76,0-163.29,68.49-163.29,160.26v.86c0,95.28,74.18,159.34,159.34,159.34,76.38,0,119.41-37.31,145.29-82.95l-84.73-47.87c-12.72,22.85-28.97,38.66-57.94,38.66Z"/>
    <g>
      <path class="cls-1" d="M1173.14,376.42c1.04.51,3.08-1.08,2.57-2.31-3.95-.4.94,1.83-2.57,2.31Z"/>
      <polygon class="cls-1" points="1169.83 378.25 1170.5 378.48 1170.29 376.85 1169.83 378.25"/>
      <path class="cls-1" d="M1217.27,389.4l.83-1.05c.34.26.57,1.85-.33,2.31l1.48-.91c.98-2.08-1.4-2.99-2.7-2.82.14.97-.8,3.36.71,2.48Z"/>
      <path class="cls-1" d="M1215.73,398.76l-.97-2.11c-.06,1.91-1.95,2.2-.09,3.88,2.07-1.6,4.15-4.85,3.72-7.73l-2.67,5.96Z"/>
      <path class="cls-1" d="M1204.05,407.6c2.15-2.88,1.21-6.99,2.77-9.81l-1.38-2.71c-3.46,2.74-4.03,9.98-1.38,12.52Z"/>
      <path class="cls-1" d="M1207.51,389.29c-1.03-2.96-4.26-1.62-5.33-.23,1.03.77,2.4,4.02,3.05,1.8l-.24-1.85c.6-.09,2.33,1.22,1.9,2.54l.63-2.25Z"/>
      <path class="cls-1" d="M1209.57,393.02l3.01,8.3-2.95-1.17c1.81,1.97.24,4.05,3.64,3.88.47-3.48-.54-8.64-3.7-11.01Z"/>
      <path class="cls-1" d="M1210.25,447c-.09-.34-.2-.57-.43-.6-.98-2.05,1.7-4.85,1.74-7.3-2.07-.14-2.7-1.88-2.48-3.74,2.37-2.05,2.51,2.82,4.52.86-1.5-1.37-2.75-2.28-4.39-3.23l-1.52-9.79c1.36.34,2.52-1.37,2.28-2.59-.13.03-.23.03-.36.06-.86-4.68-5.38-7.67-6.58-11.81l-.54-.17c-.83-3.17-1.64-6.42-3.78-9.04.62-1.54,3.81-1.05,3.09-3.11-1.54.43-2.89.14-4.05-.4-1.23-2.71-4.79-4.45-5.26-7.1-2.92.91-3.38-2.88-6.58-2.31-.81-.4.11-1.31-.7-1.91-2.87-.57-7.69-2.31-11.82-1.94-1.69,1.91-3.92,2.71-6.26,1.63.68,1.88-1.61,3.53-3.52,2.96l.53,1.91c-2.87-.77-2.16,3.31-5.31,3.11.06,1.45,1.38.51,1.43,1.97-3.09,1.97-2.81,4.82-6.59,6.02l2.51,1.97c-2,4.31-3.2,9.44-5.58,13.32-.08-.09-.1-.26-.21-.29-1.78,1.43-1.56,1.83-.97,2.08-.12.06-.14.2-.22.26.22,0,.41-.06.6-.14.8.29,1.7.63.3,2.54.91-.34,1.36-1.8,1.26-2.99.87-.34,1.71-.54,2.71.34.48,2.82-1.95,5.62-.57,8.27-1.73,1.54-4.15,4.56-4.05,5.99,1.84-1.97,5.39-2.37,6.19-5.28.36-1.11,1.64.08,1.81.97,3.79,2.08-1.48,5.16-1.09,7.53,1.61.97,3.54-1.54,3.42-3.39,2.68-1.37,3.17,2.6,5.52,2.37.07,1.62-.42,2.96-1.07,4.33,2.14.94,2.02-1.8,3.32-2.94.76.26,1.91.77,1.85,1.34-1.34.74-2.25,1.85-2.17,3.28,3.52,1.37,1.85-3.96,4.38-4.19-1.45,5.3,5.16,1.48,4.36,6.3.69-1.34-.01-3.25,1.18-4.73,2.77,1.2,2.75,7.36,7.28,8.21.91.14,1.47-.94,2.34-1.11,2.12.72,2.65,2.82,2.59,4.65l3.22.54c-.5,1.34-1.13,2.91-.56,4.28,2.85,1.68,5.23-2.37,8.03-1.03,1.03-1.45-1.78-.97-1.31-2.34-.13-1.8,5.91-2.82,6.05-6.1,1.88-1.83,2.74.94,4.14,1.8-.87,2.14-3.09,2.17-4.48,3.68l3.2-.57c2.98.26,1.51,4.54,4.46,3.6.09-.51,0-1.06.3-1.48-.3.43-.74,1.08-1.36.6-.29-1.57,1.4-2.4,1.5-2.82.81,1.51-.53,3.25.51,3.96l.39-2.65c-.57-.86-.91-1.94-1.65-2.62-.8-.29-1.26-.63-1.57-1ZM1203.95,419.3c-.06-.6-.4-1.17-.66-1.66,1.57,1.66,3.41,2.82,5.19,3.2-1.57.11-2.92-.14-4.53-1.54Z"/>
      <path class="cls-1" d="M1213.48,450.62c.06.09.1.14.14.23-.01-.14-.1-.28-.11-.4l-.03.17Z"/>
      <path class="cls-1" d="M1217.78,461.54c-.77-3.68-2.14-7.53-4.17-10.7.56,3.68,2.73,8.5,4.17,10.7Z"/>
      <path class="cls-1" d="M1209.97,418.41c.58,1.23.9,2.05,2.51,1.8.41.26,1.37-.46.84-1.26-.8-.6-2.5-1.97-3.35-.54Z"/>
      <path class="cls-1" d="M1222.86,440.46c-.34-1.97-1.31-4.71-3.08-5.31-3.08,5.22,3.14,8.56,6.56,11.44.46.66,2.25.34,2.28-.43.33-3.31-3.91-3.48-5.76-5.7Z"/>
      <path class="cls-1" d="M1162.26,455.47c.61.29,1.71-.62,1.43-1.31-2.21-.17.53,1-1.43,1.31Z"/>
      <polygon class="cls-1" points="1160.45 456.52 1160.82 456.64 1160.67 455.75 1160.45 456.52"/>
      <polygon class="cls-1" points="1218.63 461.06 1218.77 461.94 1218.97 461.89 1218.8 461.03 1218.63 461.06"/>
      <path class="cls-1" d="M1221.38,468.53l-.74-3.08c-.11.17.39,2.08.74,3.08Z"/>
      <path class="cls-1" d="M1221.62,468.9c.77.54.37,1.85,0,2.34.32-.06.64-.17.86-.51-.11-.68-.28-1.57-.86-1.83Z"/>
      <path class="cls-1" d="M1303.35,276.61l-.24-4.25c-1.17-1.17-2.08-2.77-3.45-3.6-8.31-1.37-2.34-8.98-3.32-13.86-3.27.34-4.84-2.11-5.11-5.11,3.05-3.99,4.85,3.65,7.4-.14-2.84-1.62-5.11-2.59-7.99-3.65l-5.55-14.8c2.21.03,3.52-2.94,2.77-4.82-3.46,1.37-5.99,2.05-9.91-.11-.6-2.25-3.74-3.14-1.47-5.31,1.24.11,2.59,1.14,3.92.66-6.12-4.73-8.1-12.69-12.38-19.17,2.32-11.07,3.6-22.62,3.6-34.4v-.89c0-93.5-75.99-167.16-175.45-167.16s-176.36,74.57-176.36,168.04v.91c0,77.19,51.81,140.86,125.88,160.71-.03,2.17-.48,4.39-2,7.02l7.67-.71c4.31,13.09,12.97,26.25,13.14,39,3.25-3.57,2.58-8.44,8.17-8.59,5.55,4.22,5.88,13.18,12.72,15.66-.48,5.7.2,14.89,2.69,17.37.04-6.53,5.66-13.23,2.3-19.6-1.29-2.62,3.09-2.62,4.82-1.31,10.23-2.68,5.95,11.67,10.47,15.12,4.54-.94,3.79-8.67.6-11.61,2.47-6.93,9.86-.74,13.59-4.96,2.9,2.68,4.28,5.9,5.39,9.5,5.33-2,.63-6.65,1.03-10.75,1.74-.83,4.71-1.88,5.48-.77-1.07,3.62-.93,7.02,1.64,9.47,8.53-3.37-3.28-10.13.74-14.75,6.3,11.92,11.64-5.96,18.31,4.02-1.1-3.57-5.48-5.76-5.81-10.41,6.83-2.48,17.07,8.53,26.5,2.6,2.05-1.23,1.01-4.19,2.31-5.91,5-2.25,9.43.57,12.38,3.88l6.55-4.31c1.4,3.22,2.87,7.08,6.16,8.5,5.44-1.17,5.98-6.79,8.12-10.99,1.17,1.29,2.59,2.23,4.55,2.68,1.71.4,2.68-1.71,4.26-1.94,3.79,1.37,4.68,5.16,4.51,8.42l5.68,1.14c-.94,2.4-2.17,5.19-1.14,7.64,4.99,3.17,9.47-3.99,14.39-1.48,1.9-2.54-3.2-1.8-2.25-4.22-.15-3.22,10.66-4.82,11.08-10.7,3.47-3.14,4.84,1.88,7.33,3.45-1.7,3.82-5.62,3.77-8.14,6.42l5.69-.88c5.31.51,2.48,8.07,7.82,6.65.18-1,.06-1.91.57-2.65-.51.74-1.36,1.8-2.42.97-.44-2.82,2.63-4.28,2.84-4.96,1.38,2.74-1.11,5.73.71,7.07l.83-4.68c-1-1.57-1.58-3.54-2.88-4.79-8.66-3.6-.21-10.35-.08-15.86-3.61-.48-4.72-3.54-4.22-6.88,4.32-3.56,4.32,5.19,8.04,1.74-2.62-2.54-4.85-4.14-7.69-6.02l-2.28-17.51c2.35.63,4.54-2.31,4.19-4.51-.79.14-1.5.2-2.24.23.48-2.06.04-4.22.03-6.22.34.34.6.8.78,1.62.1-1-.38-2-.67-3.08.03-.17,0-.26.08-.4l-.2-.2c-.08-.57-.08-1.08.08-1.68,3.27.06,5.76,6.48,10.74,5.54,1.03-.17,1.1-1.6,1.94-2.11,2.48-.11,3.88,1.8,4.55,3.71l3.49-.71c.01,1.57,0,3.45,1.17,4.56,3.58.6,4.39-4.51,7.79-4.28.47-1.85-2.22-.23-2.27-1.83-.84-1.83,4.89-5.25,3.71-8.67,1.24-2.59,3.2-.11,4.99.17-.06,2.6-2.28,3.45-3.09,5.59l3.04-1.85c3.11-.97,3.34,4.02,6.03,1.91-.17-.6-.44-1.14-.34-1.66-.1.51-.33,1.37-1.13,1.17-.93-1.57.44-3.11.39-3.48,1.45,1.2.76,3.48,2.13,3.79l-.66-2.82c-.94-.65-1.74-1.62-2.77-2.02-5.76,0-2.58-5.82-3.82-9.01-2.18.66-3.52-.86-4.02-2.82,1.58-3.05,3.68,1.88,4.94-.97-2.07-.8-3.71-1.2-5.78-1.54l-5.46-9.39c1.5-.23,2.02-2.42,1.33-3.6-1.64.94-2.98,1.63-4.71,1.54-.08-.17-.11-.4-.08-.63-.79-2.77,8.31-6.33,7.5-11.61,2.37-3.39,4.59.66,7.09,1.57-.7,3.68-4.12,4.42-5.82,7.25l4.83-1.91c4.69-.66,3.81,6.53,8.14,4.22-.04-.94-.34-1.71-.04-2.51-.3.8-.78,1.88-1.91,1.37-.94-2.37,1.4-4.22,1.48-4.85,1.73,2.05.17,5.19,2.05,5.99ZM1147.37,183.22l11.85,69.12-62.04-32.63-62.07,32.63,11.83-69.12-50.18-48.92,69.36-10.07,31.06-62.87,30.99,62.87,69.37,10.07-50.18,48.92ZM1248.06,308.36c.74,0,1.55.14,1.64.63-.61.77-1,1.57-1.11,2.37-.57-1.14-1.17-2.11-.53-2.99ZM1249.28,313.61c0-.14-.06-.37-.07-.48,2.61-.26,1.27-2.97,1.57-4.73.44.26.93.57,1.44.65.66.94,1.68.91,2.74.74-.33,2.42.29,5.14,1.56,6.7-2.47.06-4.65-.6-7.23-2.88Z"/>
    </g>
  </g>
</svg>